<?xml version="1.0" standalone="no"?><!DOCTYPE svg PUBLIC "-//W3C//DTD SVG 1.1//EN" "http://www.w3.org/Graphics/SVG/1.1/DTD/svg11.dtd"><svg t="1543296711933" class="icon" style="" viewBox="0 0 1024 1024" version="1.1" xmlns="http://www.w3.org/2000/svg" p-id="2156" xmlns:xlink="http://www.w3.org/1999/xlink" width="200" height="200"><defs><style type="text/css"></style></defs><path d="M435.20512 525.06112 435.20512 455.89504c0-5.72416-2.68288-8.59136-8.04352-8.59136l-16.62464 0c-5.71904 0-8.576 2.8672-8.576 8.59136l0 77.7472 25.20064 0C432.52736 533.63712 435.20512 530.78528 435.20512 525.06112z" p-id="2157" fill="#d32f2f"></path><path d="M251.2384 58.32192l7.40864 9.25696c0.47104 0.5376 0.79872 1.13152 1.3056 1.60256l68.35712 85.47328 231.18848 0 68.49024-85.61664c0.17408-0.17408 0.30208-0.41472 0.48128-0.59904l8.09984-10.112-1.37728-2.80064c0.60416-2.30912 1.42848-4.55168 1.42848-7.0656 0-12.22656-7.64928-22.57408-18.37568-26.8288l-0.93696-1.8432c0 0-91.04384-19.59936-173.40416-19.26656C365.21472 0.83456 270.50496 19.77856 270.50496 19.77856l-0.91136 1.8176c-10.8032 4.22912-18.51392 14.60224-18.51392 26.8544 0 2.57024 0.83456 4.87424 1.46432 7.2448L251.2384 58.32192z" p-id="2158" fill="#d32f2f"></path><path d="M906.30144 673.0752c0-194.24256-151.71072-396.96384-335.63136-460.91264L336.39936 212.16256C152.48896 276.11136 0.77824 478.83264 0.77824 673.0752c0 234.4704 133.7856 348.55424 452.7616 348.55424C772.50048 1021.62944 906.30144 907.5456 906.30144 673.0752zM325.28384 436.02944c-6.79936 31.47264-15.37536 61.68064-25.73824 90.64448l0 310.46144c0 11.42784-3.04128 19.29728-9.1136 23.58784-4.64896 5.34528-12.16 8.0384-22.51776 8.0384-10.37824 0-17.87904-2.69312-22.52288-8.0384-6.07744-4.29056-9.1136-12.16-9.1136-23.58784l0-187.14112c-3.9424 1.792-8.76544 2.66752-14.47936 2.66752-12.16 0-21.44768-3.2-27.88352-9.64608-6.43072-5.70368-9.64608-13.56288-9.64608-23.58784 0-6.79936 2.14528-14.83264 6.43584-24.12544 31.81056-52.5568 57.54368-116.5312 77.21472-191.95392 3.56864-12.52352 10.53696-18.7648 20.91008-18.7648 11.07456 0 20.18816 2.48832 27.3408 7.49056 8.22272 2.8672 12.33408 10.1888 12.33408 21.98528C328.50432 421.5808 327.42912 428.90752 325.28384 436.02944zM596.608 447.30368l-69.1712 0c-10.7264 0-16.27648-8.23296-16.62464-24.67328 0-21.07392 6.97344-31.63648 20.91008-31.63648l94.37696 0c26.4448 0.36352 39.68 14.3104 39.68 41.83552l0 111.0016c0 23.94112-13.94688 35.91168-41.82528 35.91168l-87.936 0c-16.80896 0-25.21088-9.81504-25.21088-29.49632 0-19.65056 5.53984-29.47584 16.62464-29.47584l71.3216 0c2.85696 0 4.28544-0.72192 4.28544-2.16576L603.03872 453.74464C603.04384 449.43872 600.89856 447.30368 596.608 447.30368zM401.96608 782.43328l0 63.2832c0 9.984-3.75296 16.9728-11.264 20.88448-5.72416 2.87232-12.51328 4.28544-20.37248 4.28544-10.7264 0-18.41664-1.5872-23.06048-4.82304-5.35552-3.21024-8.0384-10.00448-8.0384-20.34688L339.23072 428.544c0-25.02656 13.94176-37.55008 41.82016-37.55008l81.50528 0c23.94624 0 35.92704 12.5184 35.92704 37.55008l0 121.7024c0 26.46016-12.69248 39.69536-38.07232 39.69536L401.96608 589.94176l0 37.55008 64.88064 0c10.72128 0 17.8688 2.1248 21.44768 6.42048 3.92704 4.28544 5.89312 11.96032 5.89312 23.04512 0 9.6512-1.60768 16.80384-4.82304 21.44768-4.29056 5.36064-11.79648 8.05376-22.51776 8.05376L401.96608 686.45888l0 37.55008 64.88064 0c10.72128 0 17.8688 2.13504 21.44768 6.42048 3.92704 4.28544 5.89312 11.97056 5.89312 23.05024 0 9.6512-1.60768 16.6144-4.82304 20.89984-4.29056 5.36576-11.79648 8.05888-22.51776 8.05888L401.96608 782.4384zM672.75264 856.97536c-5.72928 7.85408-14.30528 11.78624-25.74848 11.78624-10.0096 0-18.41152-2.8672-25.20064-8.58112-16.44544-10.0096-31.104-21.08416-43.96544-33.24416-10.72128 8.2176-21.63712 15.5392-32.70656 21.96992-17.87392 11.0848-33.4336 16.98816-46.64832 17.69984-12.16 0-20.736-2.67776-25.73824-8.0384-5.36576-6.07744-8.04864-12.5184-8.04864-19.29728 0.3584-8.2432 3.22048-15.19104 8.58624-20.91008 24.66304-12.8768 46.1056-26.0864 64.34304-39.69024-12.87168-18.23232-24.49408-39.12704-34.85696-62.73024-0.72192-4.28544-1.42848-8.58112-2.14528-12.86656 0-8.20224 3.56864-14.8224 10.72128-19.84512 7.14752-3.55328 13.94176-5.34528 20.37248-5.34528 10.7264 0.71168 16.97792 5.7088 18.76992 14.98624 10.00448 18.23744 19.65056 33.9712 28.9536 47.2064 21.4528-25.02144 32.17408-49.15712 32.17408-72.3968 0-1.41824-2.8672-2.15552-8.58112-2.15552l-73.46176 0c-8.22272 0-14.30016-2.49344-18.23232-7.5008-4.64896-3.584-6.96832-10.9056-6.96832-21.9648 0-8.94976 2.31936-16.1024 6.96832-21.46304 3.93216-3.93216 10.0096-5.888 18.23232-5.888l94.37696 0c16.08192 0 28.2368 3.57376 36.45952 10.71104 7.8592 7.86432 11.8016 20.37248 11.8016 37.53472 0 28.96384-8.76544 60.23168-26.27584 93.84448-7.86432 12.15488-16.27136 23.40352-25.20064 33.77152 13.57824 10.73664 30.02368 21.96992 49.33632 33.78688 6.77888 4.992 10.18368 11.9552 10.18368 20.91008C680.25344 845.7216 677.74976 851.57376 672.75264 856.97536z" p-id="2159" fill="#d32f2f"></path></svg>