<?xml version="1.0" standalone="no"?><!DOCTYPE svg PUBLIC "-//W3C//DTD SVG 1.1//EN" "http://www.w3.org/Graphics/SVG/1.1/DTD/svg11.dtd"><svg t="1542694710965" class="icon" style="" viewBox="0 0 1024 1024" version="1.1" xmlns="http://www.w3.org/2000/svg" p-id="776" xmlns:xlink="http://www.w3.org/1999/xlink" width="200" height="200"><defs><style type="text/css"></style></defs><path d="M514.218667 770.104889c4.664889 0 18.289778-0.312889 23.068444-0.853333 45.767111 0 83.768889-26.311111 98.986667-64.512a6.627556 6.627556 0 0 0-3.640889-8.163556 6.912 6.912 0 0 0-8.675556 2.730667c-0.170667 0.312889-32.597333 25.372444-89.144889 25.372444-10.609778 1.422222-20.935111 0.398222-30.72 0.398222-49.607111-0.056889-71.708444-19.399111-71.879111-19.569777-2.503111-2.190222-6.343111-2.247111-8.903111-0.113778s-3.157333 5.831111-1.393778 8.675555c14.506667 24.775111 51.484444 56.035556 92.302223 56.035556z m325.831111-167.736889a342.926222 342.926222 0 0 1-162.56 194.901333c-2.816 1.479111-15.388444-1.450667-9.073778-8.248889l0.312889-0.284444c75.776-68.437333 80.440889-135.367111 72.106667-233.045333-7.281778-85.418667-57.941333-166.456889-83.512889-203.036445l-1.792 1.080889a7.964444 7.964444 0 0 0-14.307556 3.384889c-2.673778 25.315556-8.476444 42.865778-12.515555 51.541333-17.208889 37.148444-45.397333 59.420444-86.556445 66.844445-64.824889 11.690667-129.308444 25.258667-194.104889 37.148444-40.391111 7.452444-75.064889 52.280889-68.266666 97.934222 15.388444 103.708444 86.499556 178.062222 106.211555 192.568889-0.597333-0.426667-2.56 6.968889-11.491555 7.879111a344.547556 344.547556 0 0 1-185.315556-192.341333c-23.665778-73.614222-24.405333-145.066667 0.056889-240.526222a344.632889 344.632889 0 0 1 322.56-221.44c148.366222 0 274.488889 92.956444 323.157333 223.061333 13.994667 45.283556 30.264889 129.877333 5.091556 222.577778z m-465.550222 208.64c-0.056889 0.056889-0.056889 0.056889 0 0z" fill="#FE919D" p-id="777"></path><path d="M824.888889 583.111111c0 22.215111 21.248 43.662222 51.342222 46.108445-31.601778 139.264-159.886222 254.890667-318.805333 268.117333-9.528889-22.897778-32.938667-39.111111-60.472889-39.111111-35.982222 0-65.109333 27.562667-65.109333 61.553778s29.127111 61.525333 65.109333 61.525333c28.984889 0 53.276444-18.033778 61.696-42.808889 183.950222-14.506667 331.406222-148.792889 362.183111-313.344 27.164444-10.979556 46.279111-36.807111 46.279111-66.986667v-143.587555c0-40.135111-33.820444-72.675556-75.548444-72.675556-0.597333 0-1.194667 0.113778-1.792 0.113778-40.874667-171.434667-197.12-299.320889-384.455111-299.320889-192.512 0-352.312889 134.940444-387.754667 313.486222C83.114667 362.154667 56.888889 391.509333 56.888889 426.951111v141.880889c0 39.765333 32.938667 72.049778 73.614222 72.049778C153.457778 640.881778 199.111111 611.271111 199.111111 583.111111v-142.222222c0-35.555556-2.332444-60.16-19.911111-67.072 27.420444-152.348444 162.844444-268.231111 326.115556-268.231111 162.474667 0 297.472 114.716444 325.802666 266.040889-2.816 3.612444-7.736889 30.464-6.229333 40.817777 1.507556 10.382222 0 154.368 0 170.666667z" fill="#FC5766" p-id="778"></path></svg>