<?xml version="1.0" encoding="iso-8859-1"?>
<!-- Generator: Adobe Illustrator 19.0.0, SVG Export Plug-In . SVG Version: 6.00 Build 0)  -->
<svg xmlns="http://www.w3.org/2000/svg" xmlns:xlink="http://www.w3.org/1999/xlink" version="1.1" id="Capa_1" x="0px" y="0px" viewBox="0 0 512 512" style="enable-background:new 0 0 512 512;" xml:space="preserve" width="512px" height="512px">
<g>
	<g>
		<rect x="116" y="100" width="64" height="30" fill="#006DF0"/>
	</g>
</g>
<g>
	<g>
		<polygon points="97.3,248.4 97.3,284.5 68.8,248.4 53.601,248.4 53.601,319.4 73.101,319.4 73.101,284.5 101.3,319.4 116.8,319.4     116.8,248.4   " fill="#006DF0"/>
	</g>
</g>
<g>
	<g>
		<polygon points="177.7,265.4 177.7,248.4 129,248.4 129,319.4 148.5,319.4 148.5,293 172.301,293 172.301,277.2 148.5,277.2     148.5,265.4   " fill="#006DF0"/>
	</g>
</g>
<g>
	<g>
		<path d="M226.102,294c-0.535,1.6-1.25,2.95-2.15,4.05c-0.9,1.1-1.9,2-3,2.7c-1.1,0.7-2.25,1.2-3.45,1.5s-2.367,0.45-3.5,0.45    c-2.267,0-4.284-0.516-6.05-1.55c-1.768-1.033-3.268-2.416-4.5-4.15c-1.234-1.733-2.167-3.733-2.8-6    c-0.635-2.266-0.95-4.633-0.95-7.1c0-2.2,0.266-4.416,0.8-6.65c0.533-2.233,1.383-4.233,2.55-6c1.166-1.766,2.633-3.2,4.4-4.3    c1.766-1.1,3.883-1.65,6.35-1.65c1.066,0,2.233,0.134,3.5,0.4c1.266,0.268,2.466,0.734,3.601,1.4    c1.133,0.667,2.183,1.567,3.149,2.7c0.966,1.134,1.75,2.567,2.351,4.3l14.899-10.6c-2.267-4.666-5.767-8.416-10.5-11.25    c-4.734-2.833-10.267-4.25-16.6-4.25c-5.4,0-10.217,1.034-14.45,3.1c-4.234,2.067-7.834,4.767-10.8,8.1    c-2.967,3.334-5.217,7.1-6.75,11.3c-1.534,4.2-2.3,8.467-2.3,12.8c0,4.535,0.833,9,2.5,13.4c1.663,4.4,3.981,8.334,6.949,11.8    c2.965,3.467,6.516,6.25,10.649,8.35c4.133,2.1,8.666,3.15,13.601,3.15c2.8,0,5.665-0.367,8.6-1.1c2.933-0.733,5.7-1.8,8.3-3.2    c2.601-1.4,4.916-3.133,6.95-5.2c2.033-2.066,3.55-4.4,4.55-7L226.102,294z" fill="#006DF0"/>
	</g>
</g>
<g>
	<g>
		<path d="M317,0c-49.635,0-96.399,18.415-132.559,52H0v93v274v93h296v-93v-30.135c6.963,0.746,13.982,1.135,21,1.135    c107.523,0,195-87.477,195-195S424.523,0,317,0z M266,482H30v-63h236V482z M266,389H30V175h236V389z M266,145H30V82h236V145z     M317,360c-7.029,0-14.057-0.455-21-1.335V323.29c6.916,1.124,13.932,1.71,21,1.71c71.683,0,130-58.318,130-130S388.683,65,317,65    c-7.08,0-14.094,0.572-21,1.695V52h-61.443c24.79-14.348,53.02-22,82.443-22c90.981,0,165,74.019,165,165S407.981,360,317,360z     M296,203.711v-28.285l50.761,50.761l21.213-21.213L312.82,149.82L296,166.639V145V97.214C302.861,95.748,309.884,95,317,95    c55.141,0,100,44.86,100,100s-44.859,100-100,100c-7.103,0-14.132-0.756-21-2.223v-46.641l1.264,1.264l21.213-21.213L296,203.711z    " fill="#006DF0"/>
	</g>
</g>
<g>
	<g>
		<rect x="350.142" y="103.64" transform="matrix(0.7071 -0.7071 0.7071 0.7071 -0.9847 302.9012)" width="30" height="97.999" fill="#006DF0"/>
	</g>
</g>
<g>
</g>
<g>
</g>
<g>
</g>
<g>
</g>
<g>
</g>
<g>
</g>
<g>
</g>
<g>
</g>
<g>
</g>
<g>
</g>
<g>
</g>
<g>
</g>
<g>
</g>
<g>
</g>
<g>
</g>
</svg>
