<?xml version="1.0" standalone="no"?><!DOCTYPE svg PUBLIC "-//W3C//DTD SVG 1.1//EN" "http://www.w3.org/Graphics/SVG/1.1/DTD/svg11.dtd"><svg t="1542853299067" class="icon" style="" viewBox="0 0 1024 1024" version="1.1" xmlns="http://www.w3.org/2000/svg" p-id="7050" xmlns:xlink="http://www.w3.org/1999/xlink" width="200" height="200"><defs><style type="text/css"></style></defs><path d="M774.415107 960.668603l-523.247158 0c-102.650915 0-186.170097-83.490529-186.170097-186.128141L64.997851 251.265674c0-102.643752 83.519182-186.15577 186.170097-186.15577l523.247158 0c102.650915 0 186.172143 83.512019 186.172143 186.15577l0 523.275811C960.58725 877.178073 877.066021 960.668603 774.415107 960.668603zM251.167948 154.570401c-53.320393 0-96.709599 43.37488-96.709599 96.695273l0 523.275811c0 53.30709 43.389206 96.667643 96.709599 96.667643l523.247158 0c53.318346 0 96.711646-43.360554 96.711646-96.667643L871.126752 251.265674c0-53.320393-43.392276-96.695273-96.711646-96.695273L251.167948 154.570401z" p-id="7051" fill="#cd5c5c"></path><path d="M692.0891 405.432892 692.0891 405.432892l-358.596168-0.014326c-24.708751 0-44.728714-20.028149-44.728714-44.729737 0-24.702612 20.034289-44.729737 44.728714-44.729737l0 0 358.596168 0.014326c24.709775 0 44.730761 20.028149 44.730761 44.730761C736.81986 385.404744 716.785571 405.432892 692.0891 405.432892z" p-id="7052" fill="#cd5c5c"></path><path d="M692.0891 551.983643 692.0891 551.983643l-177.63777-0.01535c-24.708751 0-44.729737-20.027126-44.729737-44.728714 0-24.709775 20.036335-44.729737 44.729737-44.729737l0 0 177.63777 0.014326c24.709775 0 44.730761 20.028149 44.730761 44.729737C736.81986 531.963681 716.785571 551.983643 692.0891 551.983643z" p-id="7053" fill="#cd5c5c"></path><path d="M692.0891 709.820438 333.492932 709.820438c-24.708751 0-44.728714-20.019962-44.728714-44.728714 0-24.710798 20.019962-44.730761 44.728714-44.730761l358.596168 0c24.709775 0 44.730761 20.018939 44.730761 44.730761C736.81986 689.799452 716.799898 709.820438 692.0891 709.820438z" p-id="7054" fill="#cd5c5c"></path><path d="M512.791527 692.071192c-24.708751 0-44.728714-20.020986-44.728714-44.729737L468.062813 361.795023c0-24.702612 20.019962-44.729737 44.728714-44.729737 24.709775 0 44.729737 20.028149 44.729737 44.729737l0 285.546432C557.521265 672.049183 537.502325 692.071192 512.791527 692.071192z" p-id="7055" fill="#cd5c5c"></path><path d="M333.492932 708.946534c0 0 0 0-0.014326 0-24.694425 0-44.714388-20.035312-44.714388-44.745087l0.028653-156.992567c0-24.700565 20.034289-44.722574 44.728714-44.722574 0 0 0 0 0.014326 0 24.695448 0.008186 44.715411 20.036335 44.715411 44.7369l-0.028653 157.006893C378.223692 688.925548 358.187357 708.946534 333.492932 708.946534z" p-id="7056" fill="#cd5c5c"></path></svg>