<?xml version="1.0" encoding="UTF-8" standalone="no"?>
<!DOCTYPE svg PUBLIC "-//W3C//DTD SVG 1.1//EN" "http://www.w3.org/Graphics/SVG/1.1/DTD/svg11.dtd">
<!-- 由 Microsoft Visio, SVG Export 生成 icon4.svg 页-1 -->
<svg xmlns="http://www.w3.org/2000/svg" xmlns:xlink="http://www.w3.org/1999/xlink" xmlns:ev="http://www.w3.org/2001/xml-events"
		xmlns:v="http://schemas.microsoft.com/visio/2003/SVGExtensions/" width="1.58175in" height="1.58175in"
		viewBox="0 0 113.886 113.886" xml:space="preserve" color-interpolation-filters="sRGB" class="st4">
	<v:documentProperties v:langID="2052" v:metric="true" v:viewMarkup="false"/>

	<style type="text/css">
	<![CDATA[
		.st1 {fill:#d32f2f;stroke:none;stroke-width:0.25}
		.st2 {fill:#ffffff;stroke:none;stroke-linecap:butt;stroke-width:0.75}
		.st3 {fill:#ffffff;stroke:none;stroke-linecap:butt;stroke-width:0.749993}
		.st4 {fill:none;fill-rule:evenodd;font-size:12px;overflow:visible;stroke-linecap:square;stroke-miterlimit:3}
	]]>
	</style>

	<g v:mID="0" v:index="1" v:groupContext="foregroundPage">
		<title>页-1</title>
		<v:pageProperties v:drawingScale="0.0393701" v:pageScale="0.0393701" v:drawingUnits="24" v:shadowOffsetX="8.50394"
				v:shadowOffsetY="-8.50394"/>
		<g id="group11-1" transform="translate(0.25,-0.25)" v:mID="11" v:groupContext="group">
			<title>工作表.11</title>
			<g id="shape1-2" v:mID="1" v:groupContext="shape">
				<title>圆形</title>
				<v:userDefs>
					<v:ud v:nameU="visVersion" v:val="VT0(15):26"/>
				</v:userDefs>
				<path d="M0 57.19 A56.6929 56.6929 0 0 1 113.39 57.19 A56.6929 56.6929 0 1 1 0 57.19 Z" class="st1"/>
			</g>
			<g id="group4-4" transform="translate(25.8854,-25.8854)" v:mID="4" v:groupContext="group">
				<title>工作表.4</title>
				<g id="shape5-5" v:mID="5" v:groupContext="shape" transform="translate(13.9596,-45.9705)">
					<title>工作表.5</title>
					<rect x="0" y="110.276" width="7.70187" height="3.61025" class="st2"/>
				</g>
				<g id="shape6-7" v:mID="6" v:groupContext="shape" transform="translate(6.45043,-23.1778)">
					<title>工作表.6</title>
					<path d="M5.26 105.34 L5.26 109.69 L1.83 105.34 L0 105.34 L0 113.89 L2.35 113.89 L2.35 109.69 L5.74 113.89 L7.61
								 113.89 L7.61 105.34 L5.26 105.34 Z" class="st2"/>
				</g>
				<g id="shape7-9" v:mID="7" v:groupContext="shape" transform="translate(15.5241,-23.1778)">
					<title>工作表.7</title>
					<path d="M5.86 107.39 L5.86 105.34 L0 105.34 L0 113.89 L2.35 113.89 L2.35 110.71 L5.21 110.71 L5.21 108.81 L2.35
								 108.81 L2.35 107.39 L5.86 107.39 Z" class="st2"/>
				</g>
				<g id="shape8-11" v:mID="8" v:groupContext="shape" transform="translate(21.6497,-23.1056)">
					<title>工作表.8</title>
					<path d="M5.56 110.76 C5.5 110.95 5.41 111.11 5.3 111.24 C5.19 111.38 5.07 111.49 4.94 111.57 C4.81 111.65 4.67
								 111.71 4.52 111.75 C4.38 111.79 4.24 111.8 4.1 111.8 C3.83 111.8 3.59 111.74 3.38 111.62 C3.16 111.49
								 2.98 111.33 2.83 111.12 C2.69 110.91 2.57 110.67 2.5 110.4 C2.42 110.12 2.38 109.84 2.38 109.54
								 C2.38 109.28 2.41 109.01 2.48 108.74 C2.54 108.47 2.65 108.23 2.79 108.02 C2.93 107.81 3.1 107.63
								 3.32 107.5 C3.53 107.37 3.78 107.3 4.08 107.3 C4.21 107.3 4.35 107.32 4.5 107.35 C4.65 107.38 4.8
								 107.44 4.93 107.52 C5.07 107.6 5.2 107.71 5.31 107.84 C5.43 107.98 5.52 108.15 5.6 108.36 L7.39
								 107.09 C7.12 106.53 6.69 106.07 6.13 105.73 C5.56 105.39 4.89 105.22 4.13 105.22 C3.48 105.22 2.9
								 105.35 2.39 105.59 C1.88 105.84 1.45 106.17 1.09 106.57 C0.73 106.97 0.46 107.42 0.28 107.93 C0.09
								 108.43 0 108.95 0 109.47 C0 110.02 0.1 110.55 0.3 111.08 C0.5 111.61 0.78 112.08 1.14 112.5 C1.49
								 112.92 1.92 113.25 2.42 113.51 C2.92 113.76 3.46 113.89 4.06 113.89 C4.39 113.89 4.74 113.84 5.09
								 113.75 C5.44 113.67 5.78 113.54 6.09 113.37 C6.4 113.2 6.68 112.99 6.93 112.74 C7.17 112.49 7.35
								 112.21 7.47 111.9 L5.56 110.76 Z" class="st2"/>
				</g>
				<g id="shape9-13" v:mID="9" v:groupContext="shape">
					<title>工作表.9</title>
					<path d="M38.15 52.27 C32.18 52.27 26.55 54.49 22.2 58.53 L0 58.53 L0 69.72 L0 102.69 L0 113.89 L35.62 113.89
								 L35.62 102.69 L35.62 99.07 C36.46 99.16 37.3 99.2 38.15 99.2 C51.09 99.2 61.61 88.68 61.61 75.74
								 C61.61 62.8 51.09 52.27 38.15 52.27 ZM32.01 110.28 L3.61 110.28 L3.61 102.69 L32.01 102.69 L32.01
								 110.28 ZM32.01 99.08 L3.61 99.08 L3.61 73.33 L32.01 73.33 L32.01 99.08 ZM32.01 69.72 L3.61 69.72
								 L3.61 62.14 L32.01 62.14 L32.01 69.72 ZM38.15 95.59 C37.3 95.59 36.46 95.54 35.62 95.43 L35.62 91.18
								 C36.45 91.31 37.3 91.38 38.15 91.38 C46.77 91.38 53.79 84.36 53.79 75.74 C53.79 67.11 46.77 60.09
								 38.15 60.09 C37.3 60.09 36.45 60.16 35.62 60.3 L35.62 58.53 L28.23 58.53 C31.21 56.8 34.61 55.88
								 38.15 55.88 C49.1 55.88 58 64.79 58 75.74 C58 86.69 49.1 95.59 38.15 95.59 ZM35.62 76.79 L35.62
								 73.38 L41.73 79.49 L44.28 76.94 L37.65 70.3 L35.62 72.32 L35.62 69.72 L35.62 63.97 C36.45 63.79
								 37.29 63.7 38.15 63.7 C44.78 63.7 50.18 69.1 50.18 75.74 C50.18 82.37 44.78 87.77 38.15 87.77 C37.29
								 87.77 36.45 87.68 35.62 87.5 L35.62 81.89 L35.77 82.04 L38.33 79.49 L35.62 76.79 Z" class="st2"/>
				</g>
				<g id="shape10-15" v:mID="10" v:groupContext="shape" transform="translate(-33.6949,-4.44356) rotate(-45)">
					<title>工作表.10</title>
					<rect x="0" y="102.093" width="3.61022" height="11.7932" class="st3"/>
				</g>
			</g>
		</g>
	</g>
</svg>
