<?xml version="1.0" encoding="iso-8859-1"?>
<!-- Generator: Adobe Illustrator 22.1.0, SVG Export Plug-In . SVG Version: 6.00 Build 0)  -->
<svg xmlns="http://www.w3.org/2000/svg" xmlns:xlink="http://www.w3.org/1999/xlink" version="1.1" id="Layer_1_1_" x="0px" y="0px" viewBox="0 0 64 64" style="enable-background:new 0 0 64 64;" xml:space="preserve" width="512" height="512">
<linearGradient id="SVGID_1_" gradientUnits="userSpaceOnUse" x1="32" y1="63" x2="32" y2="1">
	<stop offset="0" style="stop-color:#9F2FFF"/>
	<stop offset="1" style="stop-color:#0BB1D3"/>
</linearGradient>
<path style="fill:url(#SVGID_1_);" d="M32,25c4.962,0,9-4.038,9-9s-4.038-9-9-9s-9,4.038-9,9S27.038,25,32,25z M32,9  c3.86,0,7,3.14,7,7s-3.14,7-7,7s-7-3.14-7-7S28.14,9,32,9z M33,17h-2v-2h2V17z M37,17h-2v-2h2V17z M29,17h-2v-2h2V17z M55,63h8V23  h-8h-9.814C46.374,20.82,47,18.383,47,15.884C47,7.677,40.323,1,32.116,1h-0.231C23.677,1,17,7.677,17,15.884  c0,2.499,0.626,4.936,1.814,7.116H1v40h44H55z M61,25v18h-6V25H61z M29.617,39.707C30.143,40.517,31.034,41,32,41  s1.857-0.483,2.383-1.293L43.942,25H45v18H19V33h6.258L29.617,39.707z M31.884,3h0.231C39.22,3,45,8.78,45,15.884  c0,2.499-0.72,4.926-2.082,7.021L32.707,38.617c-0.312,0.48-1.101,0.48-1.413,0L21.082,22.906C19.72,20.811,19,18.383,19,15.884  C19,8.78,24.78,3,31.884,3z M20.058,25l3.9,6H17v14h30V25h6v20h8v6h-2v2h2v8h-6v-8h2v-2h-4v10h-6V51H17v10h-6V51H3v-6h8V31H7v2h2v10  H3V33h2v-2H3v-6H20.058z M3,53h6v8H3V53z M19,61v-8h26v8H19z"/>
</svg>
